<?xml version="1.0" encoding="utf-8"?>
<!-- Generator: Adobe Illustrator 18.1.0, SVG Export Plug-In . SVG Version: 6.00 Build 0)  -->
<!DOCTYPE svg PUBLIC "-//W3C//DTD SVG 1.1//EN" "http://www.w3.org/Graphics/SVG/1.1/DTD/svg11.dtd">
<svg version="1.1" id="Layer_1" xmlns="http://www.w3.org/2000/svg" xmlns:xlink="http://www.w3.org/1999/xlink" x="0px" y="0px"
	 viewBox="0 0 34 34" enable-background="new 0 0 34 34" xml:space="preserve">
<path d="M16.99976,0.75C8.02521,0.75,0.75,8.02556,0.75,17.00005C0.75,25.97473,8.02521,33.25,16.99976,33.25
	c8.97493,0,16.25024-7.27527,16.25024-16.24995C33.25,8.02556,25.97468,0.75,16.99976,0.75z M23.25051,15.68805l-0.86706,0.88454
	c-0.04608,0.04607-0.10648,0.0692-0.16709,0.0692c-0.06078,0-0.1214-0.02313-0.16766-0.0692l-4.14096-4.14123v12.22132h-1.89919
	V12.39686l-4.17566,4.17573c-0.04435,0.04407-0.10438,0.0692-0.16737,0.0692s-0.12321-0.02514-0.16766-0.0692l-0.88369-0.87288
	c-0.09262-0.09224-0.09262-0.24212,0-0.33493l6.14941-6.10942c0.04502-0.04512,0.10763-0.0672,0.17024-0.06614
	c0.06595-0.00497,0.13325,0.01558,0.1841,0.06614l6.1326,6.09776c0.04435,0.04406,0.06929,0.10447,0.06929,0.16747
	C23.31979,15.58309,23.29486,15.6437,23.25051,15.68805z"/>
</svg>
