<?xml version="1.0" encoding="utf-8"?>
<!-- Generator: Adobe Illustrator 18.1.0, SVG Export Plug-In . SVG Version: 6.00 Build 0)  -->
<!DOCTYPE svg PUBLIC "-//W3C//DTD SVG 1.1//EN" "http://www.w3.org/Graphics/SVG/1.1/DTD/svg11.dtd">
<svg version="1.1" id="Layer_1" xmlns="http://www.w3.org/2000/svg" xmlns:xlink="http://www.w3.org/1999/xlink" x="0px" y="0px"
	 viewBox="0 0 600 600" enable-background="new 0 0 600 600" xml:space="preserve">
<path  d="M300,11.5c-159.6,0-289,129.4-289,289c0,159.8,129.2,289,289,289c159.6,0,289-129.4,289-289
	C589,140.7,459.8,11.5,300,11.5L300,11.5z M411.2,277.2l-15.4,15.3c-0.8,0.8-1.9,1.2-3,1.2c-1.1,0-2.2-0.4-3-1.2l-73.6-73.7v217.4
	h-33.8v-218l-74.3,74.3c-0.8,0.8-1.9,1.2-3,1.2c-1.1,0-2.2-0.4-3-1.2l-15.7-15.5c-1.6-1.6-1.6-4.3,0-6l109.4-108.7
	c0.8-0.8,1.9-1.2,3-1.2c1.2-0.1,1.7,0,3.4,1.2l109.1,108.4c0.8,0,1.7,1.7,1.7,3.4c-0.6,0.8-0.8,2.5-2.5,3H411.2z"/>
</svg>
