<?xml version="1.0" encoding="utf-8"?>
<!-- Generator: Adobe Illustrator 18.1.0, SVG Export Plug-In . SVG Version: 6.00 Build 0)  -->
<!DOCTYPE svg PUBLIC "-//W3C//DTD SVG 1.1//EN" "http://www.w3.org/Graphics/SVG/1.1/DTD/svg11.dtd">
<svg version="1.1" id="Layer_1" xmlns="http://www.w3.org/2000/svg" xmlns:xlink="http://www.w3.org/1999/xlink" x="0px" y="0px"
	 viewBox="0 0 34 34" enable-background="new 0 0 34 34" xml:space="preserve">
<path d="M16.99976,1C8.16329,1,1,8.16363,1,17.00005C1,25.83666,8.16328,33,16.99976,33C25.83661,33,33,25.83665,33,17.00005
	C33,8.16363,25.83661,1,16.99976,1z M23.15434,15.70823l-0.85372,0.87094c-0.04537,0.04536-0.10485,0.06814-0.16452,0.06814
	c-0.05985,0-0.11953-0.02278-0.16508-0.06814l-4.89215-4.89241l-0.13708-0.13708l-5.02942,5.02949
	c-0.04367,0.04339-0.10277,0.06814-0.1648,0.06814c-0.06202,0-0.12131-0.02475-0.16508-0.06814l-0.87009-0.85946
	c-0.0912-0.09082-0.0912-0.23839,0-0.32978l6.05481-6.01543c0.04433-0.04442,0.10597-0.06616,0.16762-0.06513
	c0.06494-0.00489,0.1312,0.01534,0.18127,0.06513l6.03825,6.00395c0.04367,0.04339,0.06823,0.10287,0.06823,0.16489
	C23.22256,15.60489,23.19802,15.66456,23.15434,15.70823z M23.15434,22.9999l-0.85372,0.87094
	c-0.04537,0.04536-0.10485,0.06814-0.16452,0.06814c-0.05985,0-0.11953-0.02278-0.16508-0.06814l-4.89215-4.89241l-0.13708-0.13708
	l-5.02942,5.02949c-0.04367,0.04339-0.10277,0.06814-0.1648,0.06814c-0.06202,0-0.12131-0.02475-0.16508-0.06814l-0.87009-0.85946
	c-0.0912-0.09082-0.0912-0.23839,0-0.32978l6.05481-6.01543c0.04433-0.04442,0.10597-0.06616,0.16762-0.06513
	c0.06494-0.00489,0.1312,0.01534,0.18127,0.06513l6.03825,6.00395c0.04367,0.04339,0.06823,0.10287,0.06823,0.16489
	C23.22256,22.89656,23.19802,22.95623,23.15434,22.9999z"/>
</svg>
