<?xml version="1.0" encoding="utf-8"?>
<!-- Generator: Adobe Illustrator 18.1.0, SVG Export Plug-In . SVG Version: 6.00 Build 0)  -->
<!DOCTYPE svg PUBLIC "-//W3C//DTD SVG 1.1//EN" "http://www.w3.org/Graphics/SVG/1.1/DTD/svg11.dtd">
<svg version="1.1" id="Layer_1" xmlns="http://www.w3.org/2000/svg" xmlns:xlink="http://www.w3.org/1999/xlink" x="0px" y="0px"
	 viewBox="0 0 34 34" enable-background="new 0 0 34 34" xml:space="preserve">
<path d="M16.99974,0C7.61099,0,0,7.61135,0,17.00005C0,26.38895,7.61099,34,16.99974,34
	C26.3889,34,34,26.38895,34,17.00005C34,7.61135,26.3889,0,16.99974,0z M23.53899,15.6275l-0.90708,0.92537
	c-0.04821,0.0482-0.1114,0.0724-0.17481,0.0724c-0.06359,0-0.127-0.0242-0.1754-0.0724l-4.33208-4.33236v12.78539h-1.98685V12.18441
	l-4.36839,4.36846c-0.0464,0.0461-0.1092,0.0724-0.1751,0.0724c-0.0659,0-0.1289-0.0263-0.1754-0.0724l-0.92448-0.91317
	c-0.0969-0.0965-0.0969-0.25329,0-0.35039l6.43323-6.39139c0.0471-0.0472,0.1126-0.0703,0.1781-0.0692
	c0.069-0.0052,0.1394,0.0163,0.19259,0.0692l6.41564,6.37919c0.0464,0.0461,0.07249,0.1093,0.07249,0.17519
	C23.61147,15.5177,23.58539,15.5811,23.53899,15.6275z"/>
</svg>
