<?xml version="1.0" encoding="utf-8"?>
<!-- Generator: Adobe Illustrator 18.1.0, SVG Export Plug-In . SVG Version: 6.00 Build 0)  -->
<!DOCTYPE svg PUBLIC "-//W3C//DTD SVG 1.1//EN" "http://www.w3.org/Graphics/SVG/1.1/DTD/svg11.dtd">
<svg version="1.1" id="Layer_1" xmlns="http://www.w3.org/2000/svg" xmlns:xlink="http://www.w3.org/1999/xlink" x="0px" y="0px"
	 viewBox="0 0 34 34" enable-background="new 0 0 34 34" xml:space="preserve">
<rect x="52.31899" y="24.54427" width="2" height="2"/>
<g>
	<path d="M16.99976,1C8.16327,1,1,8.16364,1,17.00006C1,25.83667,8.16327,33,16.99976,33C25.83661,33,33,25.83667,33,17.00006
		C33,8.16364,25.83661,1,16.99976,1z M23.70233,15.6925l-0.91974,0.93835c-0.04889,0.04883-0.11292,0.07336-0.17725,0.07336
		c-0.06445,0-0.12878-0.02454-0.17786-0.07336l-4.39276-4.39307v12.96448h-2.01465V12.20123l-4.4295,4.42963
		c-0.04706,0.04669-0.11072,0.07336-0.17755,0.07336s-0.13074-0.02667-0.17786-0.07336l-0.93744-0.92596
		c-0.09821-0.09784-0.09821-0.25684,0-0.35535l6.52332-6.48077c0.04773-0.04785,0.1142-0.07129,0.1806-0.07019
		c0.06995-0.00525,0.14136,0.01648,0.19531,0.07019l6.50537,6.46844c0.04712,0.04675,0.07361,0.11084,0.07361,0.17767
		C23.77582,15.58118,23.74945,15.64545,23.70233,15.6925z"/>
</g>
</svg>
